HIERARCHY
ROOT pelvis
{
	OFFSET 0.003123 -0.351407 0.012037
	CHANNELS 6 Xposition Yposition Zposition Zrotation Yrotation Xrotation 
	JOINT left_hip
	{
		OFFSET 0.058189 -0.092763 -0.026001
		CHANNELS 3 Zrotation Yrotation Xrotation
		JOINT left_knee
		{
			OFFSET 0.054695 -0.378753 -0.009396
			CHANNELS 3 Zrotation Yrotation Xrotation
			JOINT left_ankle
			{
				OFFSET -0.043453 -0.403059 -0.031876
				CHANNELS 3 Zrotation Yrotation Xrotation
				JOINT left_foot
				{
					OFFSET 0.047257 -0.057997 0.118216
					CHANNELS 3 Zrotation Yrotation Xrotation
					End Site
					{
						OFFSET 0.000000 0.000000 0.000000
					}
				}
			}
		}
	}
	JOINT right_hip
	{
		OFFSET -0.063267 -0.103908 -0.021250
		CHANNELS 3 Zrotation Yrotation Xrotation
		JOINT right_knee
		{
			OFFSET -0.044210 -0.362380 -0.016824
			CHANNELS 3 Zrotation Yrotation Xrotation
			JOINT right_ankle
			{
				OFFSET 0.015417 -0.410728 -0.020192
				CHANNELS 3 Zrotation Yrotation Xrotation
				JOINT right_foot
				{
					OFFSET -0.038812 -0.058328 0.119049
					CHANNELS 3 Zrotation Yrotation Xrotation
					End Site
					{
						OFFSET 0.000000 0.000000 0.000000
					}
				}
			}
		}
	}
	JOINT spine_1
	{
		OFFSET -0.002763 0.109891 -0.027618
		CHANNELS 3 Zrotation Yrotation Xrotation
		JOINT spine_2
		{
			OFFSET 0.009448 0.131853 -0.005940
			CHANNELS 3 Zrotation Yrotation Xrotation
			JOINT spine_3
			{
				OFFSET -0.011330 0.052235 0.028447
				CHANNELS 3 Zrotation Yrotation Xrotation
				JOINT neck
				{
					OFFSET -0.012164 0.165167 -0.031615
					CHANNELS 3 Zrotation Yrotation Xrotation
					JOINT head
					{
						OFFSET 0.024783 0.160452 0.020737
						CHANNELS 3 Zrotation Yrotation Xrotation
						End Site
						{
							OFFSET 0.000000 0.000000 0.000000
						}
					}
				}
				JOINT left_collar
				{
					OFFSET 0.046364 0.084944 -0.007220
					CHANNELS 3 Zrotation Yrotation Xrotation
					JOINT left_shoulder
					{
						OFFSET 0.119239 0.057728 -0.015461
						CHANNELS 3 Zrotation Yrotation Xrotation
						JOINT left_elbow
						{
							OFFSET 0.254123 -0.072151 -0.042459
							CHANNELS 3 Zrotation Yrotation Xrotation
							JOINT left_wrist
							{
								OFFSET 0.251987 0.023221 -0.002472
								CHANNELS 3 Zrotation Yrotation Xrotation
								JOINT left_index_1
								{
									OFFSET 0.101902 -0.008688 0.019351
									CHANNELS 3 Zrotation Yrotation Xrotation
									JOINT left_index_2
									{
										OFFSET 0.030149 -0.011154 0.001151
										CHANNELS 3 Zrotation Yrotation Xrotation
										JOINT left_index_3
										{
											OFFSET 0.006504 -0.021577 -0.002433
											CHANNELS 3 Zrotation Yrotation Xrotation
											End Site
											{
												OFFSET 0.000000 0.000000 0.000000
											}
										}
									}
								}
								JOINT left_middle_1
								{
									OFFSET 0.109398 -0.006328 -0.003981
									CHANNELS 3 Zrotation Yrotation Xrotation
									JOINT left_middle_2
									{
										OFFSET 0.026472 -0.015218 -0.004641
										CHANNELS 3 Zrotation Yrotation Xrotation
										JOINT left_middle_3
										{
											OFFSET 0.005022 -0.023347 -0.001911
											CHANNELS 3 Zrotation Yrotation Xrotation
											End Site
											{
												OFFSET 0.000000 0.000000 0.000000
											}
										}
									}
								}
								JOINT left_pinky_1
								{
									OFFSET 0.084047 -0.014539 -0.043750
									CHANNELS 3 Zrotation Yrotation Xrotation
									JOINT left_pinky_2
									{
										OFFSET 0.012124 -0.014448 -0.005375
										CHANNELS 3 Zrotation Yrotation Xrotation
										JOINT left_pinky_3
										{
											OFFSET 0.003798 -0.018853 0.000167
											CHANNELS 3 Zrotation Yrotation Xrotation
											End Site
											{
												OFFSET 0.000000 0.000000 0.000000
											}
										}
									}
								}
								JOINT left_ring_1
								{
									OFFSET 0.097444 -0.009268 -0.027345
									CHANNELS 3 Zrotation Yrotation Xrotation
									JOINT left_ring_2
									{
										OFFSET 0.023561 -0.016057 -0.001895
										CHANNELS 3 Zrotation Yrotation Xrotation
										JOINT left_ring_3
										{
											OFFSET 0.004257 -0.023548 0.000814
											CHANNELS 3 Zrotation Yrotation Xrotation
											End Site
											{
												OFFSET 0.000000 0.000000 0.000000
											}
										}
									}
								}
								JOINT left_thumb_1
								{
									OFFSET 0.040636 -0.017977 0.025611
									CHANNELS 3 Zrotation Yrotation Xrotation
									JOINT left_thumb_2
									{
										OFFSET 0.021637 -0.017639 0.011623
										CHANNELS 3 Zrotation Yrotation Xrotation
										JOINT left_thumb_3
										{
											OFFSET 0.024002 -0.008356 0.006548
											CHANNELS 3 Zrotation Yrotation Xrotation
											End Site
											{
												OFFSET 0.000000 0.000000 0.000000
											}
										}
									}
								}
							}
						}
					}
				}
				JOINT right_collar
				{
					OFFSET -0.047695 0.084339 -0.013400
					CHANNELS 3 Zrotation Yrotation Xrotation
					JOINT right_shoulder
					{
						OFFSET -0.102578 0.053524 -0.012669
						CHANNELS 3 Zrotation Yrotation Xrotation
						JOINT right_elbow
						{
							OFFSET -0.271150 -0.036492 -0.026467
							CHANNELS 3 Zrotation Yrotation Xrotation
							JOINT right_wrist
							{
								OFFSET -0.249267 -0.004533 -0.015325
								CHANNELS 3 Zrotation Yrotation Xrotation
								JOINT right_index_1
								{
									OFFSET -0.099881 -0.011783 0.019600
									CHANNELS 3 Zrotation Yrotation Xrotation
									JOINT right_index_2
									{
										OFFSET -0.030148 -0.011154 0.001151
										CHANNELS 3 Zrotation Yrotation Xrotation
										JOINT right_index_3
										{
											OFFSET -0.006505 -0.021577 -0.002432
											CHANNELS 3 Zrotation Yrotation Xrotation
											End Site
											{
												OFFSET 0.000000 0.000000 0.000000
											}
										}
									}
								}
								JOINT right_middle_1
								{
									OFFSET -0.107376 -0.009422 -0.003734
									CHANNELS 3 Zrotation Yrotation Xrotation
									JOINT right_middle_2
									{
										OFFSET -0.026472 -0.015218 -0.004641
										CHANNELS 3 Zrotation Yrotation Xrotation
										JOINT right_middle_3
										{
											OFFSET -0.005022 -0.023347 -0.001911
											CHANNELS 3 Zrotation Yrotation Xrotation
											End Site
											{
												OFFSET 0.000000 0.000000 0.000000
											}
										}
									}
								}
								JOINT right_pinky_1
								{
									OFFSET -0.082027 -0.017634 -0.043503
									CHANNELS 3 Zrotation Yrotation Xrotation
									JOINT right_pinky_2
									{
										OFFSET -0.012123 -0.014448 -0.005374
										CHANNELS 3 Zrotation Yrotation Xrotation
										JOINT right_pinky_3
										{
											OFFSET -0.003798 -0.018852 0.000167
											CHANNELS 3 Zrotation Yrotation Xrotation
											End Site
											{
												OFFSET 0.000000 0.000000 0.000000
											}
										}
									}
								}
								JOINT right_ring_1
								{
									OFFSET -0.095423 -0.012362 -0.027099
									CHANNELS 3 Zrotation Yrotation Xrotation
									JOINT right_ring_2
									{
										OFFSET -0.023561 -0.016057 -0.001895
										CHANNELS 3 Zrotation Yrotation Xrotation
										JOINT right_ring_3
										{
											OFFSET -0.004257 -0.023548 0.000816
											CHANNELS 3 Zrotation Yrotation Xrotation
											End Site
											{
												OFFSET 0.000000 0.000000 0.000000
											}
										}
									}
								}
								JOINT right_thumb_1
								{
									OFFSET -0.038613 -0.021074 0.025861
									CHANNELS 3 Zrotation Yrotation Xrotation
									JOINT right_thumb_2
									{
										OFFSET -0.021636 -0.017639 0.011623
										CHANNELS 3 Zrotation Yrotation Xrotation
										JOINT right_thumb_3
										{
											OFFSET -0.024004 -0.008353 0.006547
											CHANNELS 3 Zrotation Yrotation Xrotation
											End Site
											{
												OFFSET 0.000000 0.000000 0.000000
											}
										}
									}
								}
							}
						}
					}
				}
			}
		}
	}
}
MOTION
Frames: 7
Frame Time: 0.050000
0.020550 0.910156 0.011147 -2.954635 1.411980 -15.146882 4.657429 1.585622 15.977561 -4.146586 -0.216057 7.306691 6.100185 -0.215163 -15.600363 0.000000 0.000000 0.000000 -5.352345 -0.709285 10.107284 8.427548 -1.093152 15.759431 -3.307185 1.706561 -12.820394 0.000000 0.000000 0.000000 0.414647 -0.648884 9.449805 -6.157136 0.325443 -11.551251 9.277586 -3.717146 27.157140 2.709803 -1.518023 5.665266 0.000000 0.000000 0.000000 1.762403 -7.823030 3.772378 -59.104726 -10.295404 -7.648318 -26.449082 -42.276654 15.366158 -9.624430 6.935237 21.307758 -28.473440 10.392089 0.750150 -24.586602 10.027576 4.967687 0.000000 0.000000 0.000000 -31.550465 2.823510 -6.634899 -37.284667 4.939983 -4.386189 0.000000 0.000000 0.000000 -2.957198 -26.492614 -21.516592 -52.454529 -7.231091 -16.031145 0.000000 0.000000 0.000000 -27.320804 -7.869792 -6.839197 -50.641478 -2.354201 -9.252511 0.000000 0.000000 0.000000 -3.946240 27.321174 27.078427 6.167051 -9.642047 -5.731976 0.000000 0.000000 0.000000 -8.580216 -0.268092 0.803772 47.752012 16.299278 -1.764792 -165.011381 66.986682 -158.996103 10.298435 2.813822 -12.628533 36.506767 2.635183 2.284389 52.571608 1.778296 -6.037976 0.000000 0.000000 0.000000 51.623031 10.888113 -6.812353 40.845787 6.652759 -12.917099 0.000000 0.000000 0.000000 30.886915 27.460360 -33.383340 39.385163 3.201487 -5.112452 0.000000 0.000000 0.000000 50.700764 22.461949 -5.808344 33.830881 11.779325 -15.370177 0.000000 0.000000 0.000000 10.290384 -17.080126 17.388726 -24.636612 2.789188 -6.090386 0.000000 0.000000 0.000000 
0.020314 0.909834 0.009827 -2.574671 0.882663 -15.376011 4.372778 1.722766 16.643724 -4.401496 -0.114470 6.537017 6.062170 0.074346 -15.370266 0.000000 0.000000 0.000000 -6.161651 -0.644132 10.574727 8.964418 -1.145634 15.147253 -3.126663 2.439958 -12.933285 0.000000 0.000000 0.000000 -0.184150 -0.704809 10.199609 -6.264826 0.268950 -11.849037 9.779383 -3.341669 27.101656 2.426715 -1.423169 5.520040 0.000000 0.000000 0.000000 1.735108 -7.508567 3.623882 -58.963649 -10.229947 -7.655666 -27.392881 -42.382715 15.808219 -8.785328 7.837090 22.702452 -26.173164 10.303310 1.038275 -24.451649 11.498750 6.320343 0.000000 0.000000 0.000000 -30.639043 2.715749 -6.507444 -39.340065 7.417565 -1.893886 0.000000 0.000000 0.000000 1.460282 -23.904296 -17.136621 -55.797444 -10.652509 -24.042478 0.000000 0.000000 0.000000 -25.080522 -8.444826 -6.826928 -53.360874 -0.371928 -6.736997 0.000000 0.000000 0.000000 -5.359271 27.064662 26.597802 9.817777 -8.727117 -7.025206 0.000000 0.000000 0.000000 -8.888121 -0.947519 0.548508 46.953471 16.474544 -1.723980 -166.946527 67.205036 -162.256559 10.192081 2.266700 -12.288228 34.269338 2.179791 2.094004 50.211589 0.832809 -4.884538 0.000000 0.000000 0.000000 48.649644 8.916453 -6.523305 40.961060 6.220962 -12.367749 0.000000 0.000000 0.000000 24.498277 23.641359 -31.195932 46.338065 5.996697 -8.128834 0.000000 0.000000 0.000000 47.304540 19.457102 -5.720310 37.740837 11.355306 -13.234413 0.000000 0.000000 0.000000 5.302256 -17.846849 15.941790 -13.737965 7.834477 -7.267604 0.000000 0.000000 0.000000 
0.020903 0.909592 0.011147 -2.688611 1.333065 -15.121468 4.366733 1.674146 16.373534 -4.191715 -0.153941 6.589703 6.088415 -0.232084 -15.618506 0.000000 0.000000 0.000000 -5.903605 -0.687046 10.637479 8.766138 -1.113979 14.798852 -3.286941 1.971270 -13.024620 0.000000 0.000000 0.000000 -0.205239 -0.646643 9.424111 -6.092558 0.620581 -10.306051 9.909171 -3.748273 26.364460 2.480559 -1.383496 5.234592 0.000000 0.000000 0.000000 1.620388 -6.936356 3.358808 -58.748295 -9.810402 -7.678440 -29.023245 -42.848252 16.703520 -7.596527 7.775873 21.955450 -26.224412 10.371980 1.063634 -22.735062 10.863383 6.717352 0.000000 0.000000 0.000000 -29.775115 2.013098 -6.393933 -37.322343 7.053421 -1.516258 0.000000 0.000000 0.000000 1.025293 -23.053098 -17.832221 -55.671739 -11.526411 -23.667049 0.000000 0.000000 0.000000 -25.554716 -7.073031 -6.377988 -53.094564 -1.117337 -7.390120 0.000000 0.000000 0.000000 -3.190046 26.285012 26.006090 6.248349 -9.689016 -5.803639 0.000000 0.000000 0.000000 -8.931534 -1.288631 0.430343 46.615680 16.638943 -1.685167 -167.620151 67.098028 -163.440279 9.712158 2.978962 -11.091806 34.569502 2.642777 1.952455 53.694301 -0.938705 -3.479985 0.000000 0.000000 0.000000 48.963452 8.656274 -6.769509 43.252906 5.880055 -11.914155 0.000000 0.000000 0.000000 25.392916 25.518564 -32.866905 44.474604 5.840519 -8.043683 0.000000 0.000000 0.000000 48.067384 20.527258 -6.082096 39.229782 11.785171 -13.758293 0.000000 0.000000 0.000000 5.153747 -19.817932 17.764655 -15.433804 8.453247 -8.141091 0.000000 0.000000 0.000000 
0.020844 0.909270 0.011147 -3.098640 1.373806 -15.333309 5.073425 1.583422 16.583629 -4.576851 -0.105698 6.623826 6.103745 -0.419810 -15.799179 0.000000 0.000000 0.000000 -5.322408 -0.762503 10.728365 8.570601 -1.091978 15.059682 -3.335435 1.840872 -13.057408 0.000000 0.000000 0.000000 0.262994 -0.671165 9.742232 -6.020648 0.238532 -11.648291 9.793426 -3.663751 27.430207 2.081947 -1.492880 6.420039 0.000000 0.000000 0.000000 1.436510 -7.657220 3.697794 -58.710590 -9.853360 -7.775199 -28.649664 -42.221293 16.281266 -6.268479 6.572170 22.219097 -30.198941 12.668577 0.710681 -23.706599 10.384266 6.031501 0.000000 0.000000 0.000000 -31.034467 4.600900 -6.025985 -39.020317 6.802470 -2.019153 0.000000 0.000000 0.000000 -0.321424 -27.040208 -19.468198 -58.155659 -12.775391 -22.130841 0.000000 0.000000 0.000000 -28.180274 -8.524068 -6.977750 -54.873760 -1.318646 -6.953411 0.000000 0.000000 0.000000 -4.511762 28.775880 28.022923 8.868602 -10.391724 -7.227197 0.000000 0.000000 0.000000 -9.473483 0.151289 1.053849 46.798535 15.746759 -1.927312 -166.653892 66.724736 -161.530064 9.334637 1.990795 -10.439516 37.455442 3.281754 2.213247 52.578687 -0.960174 -3.748555 0.000000 0.000000 0.000000 49.551097 9.216863 -6.975789 45.417610 4.653308 -10.275659 0.000000 0.000000 0.000000 25.375037 26.383003 -34.188855 52.927094 4.575406 -5.979130 0.000000 0.000000 0.000000 48.017870 22.280560 -6.763880 43.950140 11.002406 -11.294743 0.000000 0.000000 0.000000 7.450171 -19.317032 18.364808 -20.406473 7.147977 -8.621499 0.000000 0.000000 0.000000 
0.020550 0.910237 0.012466 -2.972349 0.927923 -15.413544 4.681990 1.709330 17.055270 -4.107817 -0.126878 6.158684 6.040103 -0.044821 -15.398619 0.000000 0.000000 0.000000 -5.312083 -0.730845 10.467066 8.275701 -1.039747 15.722297 -3.185105 2.188054 -12.869641 0.000000 0.000000 0.000000 0.353671 -0.714237 10.260167 -6.297247 0.300652 -11.801382 9.617833 -3.440947 27.000781 2.220747 -1.479562 6.148259 0.000000 0.000000 0.000000 1.593515 -7.616540 3.674976 -59.135011 -9.631367 -7.807383 -26.789699 -42.622868 15.662227 -9.145122 7.401131 23.869096 -28.245730 11.382118 0.703600 -23.331204 10.172634 5.163410 0.000000 0.000000 0.000000 -29.261289 3.830209 -5.960388 -37.293478 6.406297 -3.264064 0.000000 0.000000 0.000000 1.902072 -26.084277 -18.322185 -52.753980 -9.134925 -23.586353 0.000000 0.000000 0.000000 -25.605523 -7.318884 -6.601331 -49.832222 -1.371388 -9.609288 0.000000 0.000000 0.000000 -5.383476 27.065985 26.444277 7.566695 -7.955329 -5.740355 0.000000 0.000000 0.000000 -8.731606 -0.090176 0.897873 47.147527 15.838721 -1.911455 -167.994814 67.290522 -163.903724 9.236495 1.691266 -9.052835 36.248151 0.624203 1.973985 51.775716 -0.521740 -4.549539 0.000000 0.000000 0.000000 50.471428 8.830809 -7.173828 41.999683 4.517413 -10.623539 0.000000 0.000000 0.000000 24.927633 25.707849 -33.461520 48.325367 5.452499 -6.981472 0.000000 0.000000 0.000000 48.908197 20.507355 -6.318619 38.558754 10.324617 -12.306879 0.000000 0.000000 0.000000 6.433313 -19.070889 18.078642 -16.814047 8.006761 -8.237731 0.000000 0.000000 0.000000 
0.019843 0.909914 0.011147 -2.519362 0.891947 -15.117663 4.272745 1.763214 16.913984 -4.257286 -0.071004 5.685069 5.966923 -0.031130 -15.225500 0.000000 0.000000 0.000000 -6.153536 -0.633545 10.456036 8.930729 -1.132471 15.008159 -3.154696 2.401260 -12.981280 0.000000 0.000000 0.000000 -0.622031 -0.650905 9.407179 -6.156831 0.283263 -11.605976 10.046758 -3.335048 27.560340 2.322240 -1.502773 6.129841 0.000000 0.000000 0.000000 1.618579 -7.366352 3.561035 -59.263573 -10.459196 -7.644849 -27.282803 -42.261346 15.723434 -7.859823 8.771558 24.698845 -27.317839 11.810430 0.949023 -22.826226 11.840132 7.153358 0.000000 0.000000 0.000000 -29.404524 4.447538 -5.820887 -38.744514 8.577329 -0.810006 0.000000 0.000000 0.000000 3.127843 -28.118521 -18.446066 -56.994184 -10.213805 -22.799441 0.000000 0.000000 0.000000 -23.940820 -6.282521 -5.928669 -54.874111 -0.853009 -9.013981 0.000000 0.000000 0.000000 -7.062893 27.655843 26.598592 9.225129 -9.138399 -7.012106 0.000000 0.000000 0.000000 -8.995756 -0.380157 0.790936 47.026932 15.364234 -2.047762 -168.872682 67.352066 -165.249141 9.173865 1.585394 -9.337325 33.374918 1.727066 1.759287 49.208086 -1.333061 -3.205667 0.000000 0.000000 0.000000 45.810215 6.378704 -6.608940 42.981602 4.480222 -10.304624 0.000000 0.000000 0.000000 20.159860 21.200013 -29.526009 53.791622 7.664745 -9.082869 0.000000 0.000000 0.000000 45.195381 16.775222 -5.886181 42.057261 10.123541 -10.731360 0.000000 0.000000 0.000000 2.542754 -17.925075 15.513190 -9.016532 6.197141 -5.157322 0.000000 0.000000 0.000000 
0.020314 0.909592 0.011147 -2.684068 0.876908 -14.910198 4.616920 1.682964 16.654078 -4.650727 -0.025249 5.749355 5.989600 -0.058128 -15.313304 0.000000 0.000000 0.000000 -5.854932 -0.658520 10.398879 8.718830 -1.079820 14.705770 -3.210840 2.328201 -13.085570 0.000000 0.000000 0.000000 -0.612391 -0.630929 9.092089 -6.240744 0.338544 -11.532030 10.410953 -3.511900 28.540016 2.494303 -1.326032 4.813303 0.000000 0.000000 0.000000 1.287455 -6.486486 3.149266 -59.223139 -9.828438 -7.831834 -28.853238 -43.691183 17.064890 -6.618460 8.248213 23.561397 -26.892306 11.611289 0.995962 -18.628573 9.340973 6.554108 0.000000 0.000000 0.000000 -27.159874 4.841396 -5.036559 -36.339844 6.544711 -2.298377 0.000000 0.000000 0.000000 4.186881 -25.308866 -17.294746 -57.042826 -11.815166 -24.348768 0.000000 0.000000 0.000000 -21.422519 -5.868937 -5.370886 -53.005204 0.573313 -6.466796 0.000000 0.000000 0.000000 -5.498420 27.400060 26.483687 5.612168 -9.496557 -5.475341 0.000000 0.000000 0.000000 -8.979240 -1.428901 0.341076 46.941119 16.833954 -1.686231 -169.423755 67.915241 -166.235731 9.029113 2.192464 -9.225527 36.304295 1.053533 1.965824 52.471783 -2.744496 -2.052734 0.000000 0.000000 0.000000 52.212944 6.950807 -6.974349 40.826239 4.315310 -10.497269 0.000000 0.000000 0.000000 30.676323 26.835122 -33.205479 45.470271 2.544334 -3.719653 0.000000 0.000000 0.000000 51.509288 21.122450 -5.995216 37.898620 8.680309 -10.028790 0.000000 0.000000 0.000000 9.379095 -18.741949 18.727586 -31.868293 1.691594 -7.902511 0.000000 0.000000 0.000000 
